<svg width="325" height="626" viewBox="0 0 325 626" fill="none" xmlns="http://www.w3.org/2000/svg">
<g opacity="0.1">
<path d="M96.365 625.516L0.0801418 37.6694L104.682 20.5363C157.416 11.899 197.845 25.6935 219.919 62.9109C244.43 104.167 258.321 183.558 276.445 294.212C295.278 409.188 307.03 480.939 297.528 531.318C288.906 576.226 256.294 599.321 200.967 608.383L96.365 625.516ZM181.464 527.249L187.516 526.257C202.212 523.85 208.718 514.796 207.034 499.093C204.798 474.605 192.196 397.666 177.895 310.353C165.576 235.144 153.682 162.527 145.864 125.638C141.885 106.761 134.559 99.9716 118.134 102.662L112.082 103.653L181.464 527.249Z" fill="#B490E8"/>
<path d="M96.365 625.516L94.3913 625.839L94.7146 627.813L96.6883 627.49L96.365 625.516ZM0.0801445 37.6694L-0.243133 35.6957L-2.21683 36.019L-1.89356 37.9927L0.0801445 37.6694ZM219.919 62.9109L218.199 63.9311L218.2 63.9324L219.919 62.9109ZM297.528 531.318L299.492 531.695L299.494 531.688L297.528 531.318ZM181.464 527.249L179.491 527.572L179.814 529.546L181.788 529.222L181.464 527.249ZM207.034 499.093L205.042 499.275L205.043 499.291L205.045 499.307L207.034 499.093ZM145.864 125.638L143.907 126.05L143.908 126.052L145.864 125.638ZM112.082 103.653L111.759 101.679L109.786 102.003L110.109 103.976L112.082 103.653ZM98.3387 625.193L2.05384 37.3461L-1.89356 37.9927L94.3913 625.839L98.3387 625.193ZM0.403422 39.6431L105.006 22.51L104.359 18.5626L-0.243133 35.6957L0.403422 39.6431ZM105.006 22.51C157.233 13.9556 196.683 27.6556 218.199 63.9311L221.639 61.8906C199.007 23.7313 157.599 9.8424 104.359 18.5626L105.006 22.51ZM218.2 63.9324C230.285 84.2751 239.832 114.176 248.627 152.979C257.413 191.747 265.408 239.197 274.472 294.535L278.419 293.888C269.359 238.573 261.346 191.001 252.528 152.095C243.718 113.226 234.064 82.8032 221.638 61.8893L218.2 63.9324ZM274.472 294.535C283.891 352.043 291.526 398.662 295.623 437.2C299.722 475.749 300.259 506.049 295.563 530.947L299.494 531.688C304.299 506.208 303.712 475.443 299.601 436.777C295.489 398.101 287.832 351.356 278.419 293.888L274.472 294.535ZM295.564 530.941C291.337 552.955 281.269 569.513 265.536 581.712C249.751 593.952 228.128 601.908 200.644 606.409L201.29 610.357C229.133 605.796 251.479 597.674 267.987 584.873C284.548 572.032 295.097 554.589 299.492 531.695L295.564 530.941ZM200.644 606.409L96.0418 623.543L96.6883 627.49L201.29 610.357L200.644 606.409ZM181.788 529.222L187.839 528.231L187.192 524.284L181.141 525.275L181.788 529.222ZM187.839 528.231C195.529 526.972 201.386 523.916 205.041 518.828C208.682 513.762 209.895 507.018 209.022 498.88L205.045 499.307C205.856 506.871 204.659 512.506 201.793 516.494C198.942 520.461 194.198 523.136 187.192 524.284L187.839 528.231ZM209.025 498.912C206.781 474.33 194.16 397.282 179.868 310.03L175.921 310.677C190.232 398.05 202.815 474.88 205.042 499.275L209.025 498.912ZM179.868 310.03C167.554 234.849 155.651 162.171 147.821 125.223L143.908 126.052C151.713 162.884 163.598 235.439 175.921 310.677L179.868 310.03ZM147.821 125.225C145.81 115.683 142.87 108.706 137.961 104.538C132.946 100.28 126.31 99.2962 117.811 100.688L118.457 104.636C126.383 103.337 131.622 104.403 135.372 107.587C139.227 110.86 141.939 116.716 143.907 126.05L147.821 125.225ZM117.811 100.688L111.759 101.679L112.406 105.627L118.457 104.636L117.811 100.688ZM110.109 103.976L179.491 527.572L183.438 526.925L114.056 103.33L110.109 103.976Z" fill="#AD89DF"/>
</g>
</svg>
