<svg width="396" height="638" viewBox="0 0 396 638" fill="none" xmlns="http://www.w3.org/2000/svg">
<g opacity="0.1">
<path d="M0.79301 570.136L174.704 0.408095L270.217 29.5638L191.446 287.617L221.608 296.824L300.379 38.7709L395.893 67.9266L221.981 637.654L126.468 608.498L197.056 377.256L166.894 368.049L96.3062 599.291L0.79301 570.136Z" fill="#B490E8"/>
<path d="M0.79301 570.136L-1.11985 569.552L-1.70376 571.465L0.209102 572.049L0.79301 570.136ZM174.704 0.408108L175.288 -1.50476L173.375 -2.08866L172.791 -0.1758L174.704 0.408108ZM270.217 29.5638L272.13 30.1477L272.714 28.2348L270.801 27.6509L270.217 29.5638ZM191.446 287.617L189.533 287.033L188.949 288.946L190.862 289.53L191.446 287.617ZM221.608 296.824L221.024 298.737L222.937 299.321L223.521 297.408L221.608 296.824ZM300.379 38.7709L300.963 36.858L299.05 36.2741L298.467 38.187L300.379 38.7709ZM395.893 67.9266L397.805 68.5105L398.389 66.5976L396.476 66.0137L395.893 67.9266ZM221.981 637.654L221.397 639.567L223.31 640.151L223.894 638.238L221.981 637.654ZM126.468 608.498L124.555 607.915L123.971 609.827L125.884 610.411L126.468 608.498ZM197.056 377.256L198.969 377.84L199.552 375.927L197.64 375.343L197.056 377.256ZM166.894 368.049L167.478 366.136L165.565 365.552L164.981 367.465L166.894 368.049ZM96.3062 599.291L95.7223 601.204L97.6351 601.788L98.219 599.875L96.3062 599.291ZM2.70588 570.72L176.617 0.992016L172.791 -0.1758L-1.11985 569.552L2.70588 570.72ZM174.12 2.32097L269.633 31.4767L270.801 27.6509L175.288 -1.50476L174.12 2.32097ZM268.304 28.9799L189.533 287.033L193.359 288.201L272.13 30.1477L268.304 28.9799ZM190.862 289.53L221.024 298.737L222.192 294.911L192.03 285.704L190.862 289.53ZM223.521 297.408L302.292 39.3548L298.467 38.187L219.695 296.24L223.521 297.408ZM299.795 40.6837L395.309 69.8394L396.476 66.0137L300.963 36.858L299.795 40.6837ZM393.98 67.3427L220.069 637.07L223.894 638.238L397.805 68.5105L393.98 67.3427ZM222.565 635.741L127.052 606.586L125.884 610.411L221.397 639.567L222.565 635.741ZM128.381 609.082L198.969 377.84L195.143 376.672L124.555 607.915L128.381 609.082ZM197.64 375.343L167.478 366.136L166.31 369.962L196.472 379.169L197.64 375.343ZM164.981 367.465L94.3933 598.707L98.219 599.875L168.807 368.633L164.981 367.465ZM96.8901 597.379L1.37692 568.223L0.209102 572.049L95.7223 601.204L96.8901 597.379Z" fill="#AD89DF"/>
</g>
</svg>
