<svg width="572" height="693" viewBox="0 0 572 693" fill="none" xmlns="http://www.w3.org/2000/svg">
<g opacity="0.1">
<path d="M226.634 692.784L0.516351 141.689L130.996 88.1523L237.505 266.966C264.75 312.599 303.863 394.079 303.863 394.079L307.105 392.748C307.105 392.748 276.907 307.611 264.249 255.992L215.281 53.5696L345.761 0.0328961L571.879 551.128L479.489 589.036L407.664 413.982C390.705 372.65 331.139 185.938 331.139 185.938L325.944 187.122C325.944 187.122 367.284 354.8 376.907 394.408L428.432 609.985L369.27 634.259L255.342 444.287C234.706 410.145 146.028 260.943 146.028 260.943L141.498 263.749C141.498 263.749 230.239 438.49 247.198 479.822L319.023 654.876L226.634 692.784Z" fill="#B490E8"/>
<path d="M226.634 692.784L224.784 693.543L225.543 695.393L227.393 694.634L226.634 692.784ZM0.516357 141.689L-0.242835 139.839L-2.09314 140.598L-1.33395 142.448L0.516357 141.689ZM130.996 88.1523L132.714 87.1288L131.832 85.6475L130.237 86.302L130.996 88.1523ZM237.505 266.966L235.787 267.989L235.788 267.991L237.505 266.966ZM303.863 394.079L302.06 394.944L302.877 396.645L304.622 395.929L303.863 394.079ZM307.105 392.748L307.864 394.599L309.627 393.876L308.99 392.08L307.105 392.748ZM264.249 255.992L262.305 256.463L262.307 256.469L264.249 255.992ZM215.281 53.5696L214.522 51.7193L212.934 52.371L213.337 54.0398L215.281 53.5696ZM345.761 0.032906L347.611 -0.726286L346.852 -2.57659L345.002 -1.8174L345.761 0.032906ZM571.879 551.128L572.638 552.978L574.488 552.219L573.729 550.368L571.879 551.128ZM479.489 589.036L477.639 589.795L478.398 591.645L480.248 590.886L479.489 589.036ZM331.139 185.938L333.045 185.33L332.486 183.579L330.695 183.988L331.139 185.938ZM325.944 187.122L325.5 185.173L323.515 185.625L324.002 187.601L325.944 187.122ZM376.907 394.408L378.853 393.943L378.851 393.936L376.907 394.408ZM428.432 609.985L429.191 611.835L430.775 611.185L430.377 609.52L428.432 609.985ZM369.27 634.259L367.555 635.288L368.439 636.762L370.03 636.109L369.27 634.259ZM255.342 444.287L257.058 443.258L257.054 443.252L255.342 444.287ZM146.028 260.943L147.747 259.921L146.707 258.17L144.975 259.243L146.028 260.943ZM141.498 263.749L140.445 262.049L138.883 263.016L139.715 264.654L141.498 263.749ZM319.023 654.876L319.783 656.726L321.633 655.967L320.874 654.117L319.023 654.876ZM228.484 692.025L2.36666 140.93L-1.33395 142.448L224.784 693.543L228.484 692.025ZM1.27555 143.539L131.755 90.0026L130.237 86.302L-0.242835 139.839L1.27555 143.539ZM129.278 89.1758L235.787 267.989L239.223 265.942L132.714 87.1288L129.278 89.1758ZM235.788 267.991C249.372 290.743 265.935 322.468 279.116 348.537C285.704 361.565 291.44 373.168 295.53 381.514C297.575 385.687 299.208 389.046 300.329 391.36C300.89 392.518 301.323 393.414 301.616 394.021C301.762 394.324 301.873 394.555 301.948 394.71C301.985 394.788 302.013 394.846 302.032 394.886C302.041 394.905 302.048 394.92 302.053 394.93C302.056 394.934 302.057 394.938 302.058 394.94C302.059 394.942 302.059 394.943 302.06 394.943C302.06 394.944 302.06 394.944 303.863 394.079C305.666 393.213 305.666 393.213 305.666 393.212C305.665 393.211 305.665 393.21 305.664 393.209C305.663 393.207 305.661 393.203 305.659 393.198C305.654 393.188 305.647 393.173 305.637 393.153C305.618 393.113 305.59 393.054 305.552 392.976C305.477 392.82 305.366 392.588 305.219 392.284C304.925 391.675 304.491 390.776 303.929 389.616C302.805 387.297 301.17 383.933 299.122 379.754C295.027 371.397 289.282 359.778 282.686 346.732C269.5 320.654 252.883 288.822 239.222 265.94L235.788 267.991ZM304.622 395.929L307.864 394.599L306.346 390.898L303.104 392.228L304.622 395.929ZM307.105 392.748C308.99 392.08 308.99 392.08 308.99 392.079C308.989 392.078 308.989 392.077 308.989 392.076C308.988 392.074 308.986 392.07 308.984 392.065C308.981 392.055 308.975 392.039 308.968 392.019C308.954 391.978 308.932 391.917 308.903 391.836C308.846 391.674 308.761 391.432 308.649 391.115C308.425 390.48 308.095 389.541 307.67 388.328C306.821 385.902 305.593 382.378 304.08 377.987C301.053 369.206 296.886 356.96 292.323 343.102C283.193 315.371 272.501 281.245 266.192 255.516L262.307 256.469C268.655 282.359 279.391 316.611 288.524 344.353C293.093 358.232 297.267 370.496 300.298 379.291C301.813 383.688 303.044 387.219 303.895 389.65C304.321 390.866 304.652 391.807 304.876 392.445C304.989 392.763 305.075 393.006 305.132 393.169C305.161 393.251 305.183 393.313 305.198 393.354C305.205 393.375 305.211 393.391 305.214 393.401C305.216 393.406 305.218 393.41 305.219 393.413C305.219 393.414 305.219 393.415 305.22 393.416C305.22 393.417 305.22 393.417 307.105 392.748ZM266.193 255.522L217.225 53.0993L213.337 54.0398L262.305 256.463L266.193 255.522ZM216.04 55.4199L346.52 1.88321L345.002 -1.8174L214.522 51.7193L216.04 55.4199ZM343.911 0.792098L570.028 551.887L573.729 550.368L347.611 -0.726286L343.911 0.792098ZM571.12 549.277L478.73 587.185L480.248 590.886L572.638 552.978L571.12 549.277ZM481.34 588.276L409.514 413.223L405.813 414.741L477.639 589.795L481.34 588.276ZM409.514 413.223C401.069 392.641 381.965 335.716 364.942 283.837C356.438 257.919 348.464 233.292 342.615 215.144C339.691 206.07 337.298 198.616 335.637 193.431C334.806 190.838 334.158 188.813 333.717 187.436C333.497 186.747 333.329 186.221 333.216 185.866C333.159 185.689 333.117 185.555 333.088 185.465C333.074 185.42 333.063 185.386 333.056 185.364C333.052 185.352 333.049 185.344 333.047 185.338C333.047 185.336 333.046 185.333 333.045 185.332C333.045 185.331 333.045 185.33 331.139 185.938C329.234 186.546 329.234 186.546 329.235 186.548C329.235 186.549 329.236 186.551 329.237 186.554C329.238 186.56 329.241 186.568 329.245 186.58C329.252 186.602 329.263 186.636 329.277 186.681C329.306 186.771 329.349 186.906 329.406 187.083C329.519 187.438 329.687 187.965 329.907 188.654C330.348 190.032 330.996 192.058 331.827 194.652C333.489 199.839 335.883 207.295 338.808 216.371C344.658 234.523 352.635 259.157 361.142 285.084C378.141 336.894 397.299 393.991 405.813 414.741L409.514 413.223ZM330.695 183.988L325.5 185.173L326.389 189.072L331.584 187.888L330.695 183.988ZM325.944 187.122C324.002 187.601 324.003 187.602 324.003 187.603C324.003 187.604 324.004 187.606 324.004 187.609C324.006 187.614 324.007 187.622 324.01 187.632C324.015 187.652 324.022 187.683 324.032 187.723C324.052 187.804 324.082 187.924 324.121 188.083C324.2 188.402 324.316 188.875 324.469 189.494C324.774 190.732 325.223 192.552 325.797 194.883C326.947 199.546 328.599 206.25 330.612 214.419C334.638 230.758 340.106 252.955 345.875 276.39C357.413 323.262 370.153 375.08 374.964 394.88L378.851 393.936C374.038 374.128 361.297 322.303 349.759 275.434C343.99 251.999 338.522 229.801 334.496 213.462C332.483 205.293 330.83 198.588 329.681 193.926C329.107 191.595 328.658 189.774 328.353 188.537C328.2 187.918 328.083 187.444 328.005 187.126C327.966 186.967 327.936 186.846 327.916 186.765C327.906 186.725 327.899 186.695 327.894 186.674C327.891 186.664 327.889 186.656 327.888 186.651C327.887 186.649 327.887 186.647 327.887 186.646C327.886 186.644 327.886 186.644 325.944 187.122ZM374.962 394.873L426.487 610.45L430.377 609.52L378.853 393.943L374.962 394.873ZM427.673 608.134L368.511 632.409L370.03 636.109L429.191 611.835L427.673 608.134ZM370.986 633.231L257.058 443.258L253.627 445.315L367.555 635.288L370.986 633.231ZM257.054 443.252C246.74 426.188 219.416 380.36 194.665 338.789C182.291 318.005 170.561 298.288 161.925 283.767C157.607 276.507 154.063 270.545 151.598 266.399C150.365 264.326 149.403 262.706 148.748 261.605C148.421 261.055 148.171 260.634 148.002 260.35C147.918 260.209 147.854 260.101 147.812 260.03C147.79 259.994 147.774 259.967 147.763 259.949C147.758 259.94 147.754 259.933 147.751 259.928C147.75 259.926 147.749 259.924 147.748 259.923C147.748 259.922 147.747 259.921 146.028 260.943C144.309 261.965 144.309 261.966 144.31 261.967C144.31 261.968 144.311 261.97 144.313 261.972C144.315 261.976 144.32 261.983 144.325 261.992C144.336 262.01 144.352 262.037 144.373 262.073C144.416 262.145 144.48 262.252 144.564 262.394C144.732 262.678 144.982 263.099 145.31 263.649C145.964 264.75 146.927 266.37 148.16 268.443C150.625 272.589 154.169 278.551 158.487 285.812C167.123 300.333 178.853 320.05 191.228 340.835C215.975 382.4 243.308 428.243 253.631 445.321L257.054 443.252ZM144.975 259.243L140.445 262.049L142.551 265.449L147.081 262.644L144.975 259.243ZM141.498 263.749C139.715 264.654 139.715 264.655 139.716 264.656C139.716 264.658 139.717 264.66 139.719 264.662C139.721 264.668 139.725 264.676 139.731 264.686C139.742 264.707 139.758 264.739 139.779 264.781C139.822 264.865 139.885 264.991 139.969 265.156C140.138 265.488 140.388 265.981 140.715 266.626C141.369 267.915 142.33 269.812 143.56 272.241C146.019 277.099 149.551 284.086 153.843 292.598C162.426 309.624 174.047 332.755 186.198 357.177C210.519 406.061 236.903 459.999 245.348 480.581L249.048 479.063C240.534 458.313 214.068 404.214 189.779 355.395C177.624 330.965 166 307.827 157.415 290.798C153.122 282.283 149.589 275.294 147.129 270.435C145.898 268.005 144.937 266.107 144.282 264.817C143.955 264.172 143.705 263.678 143.536 263.346C143.452 263.18 143.388 263.055 143.346 262.97C143.324 262.928 143.308 262.896 143.297 262.875C143.292 262.865 143.288 262.857 143.285 262.851C143.284 262.849 143.283 262.847 143.282 262.845C143.281 262.844 143.281 262.843 141.498 263.749ZM245.348 480.581L317.173 655.635L320.874 654.117L249.048 479.063L245.348 480.581ZM318.264 653.025L225.875 690.933L227.393 694.634L319.783 656.726L318.264 653.025Z" fill="#AD89DF"/>
</g>
</svg>
