<svg width="493" height="635" viewBox="0 0 493 635" fill="none" xmlns="http://www.w3.org/2000/svg">
<g opacity="0.1">
<path d="M0.116044 521.847L288.088 0.400453L389.31 56.3009C416.149 71.123 445.049 93.087 451.412 119.617C462.502 164.77 431.084 223.472 383.653 309.358C334.528 398.31 305.891 446.541 269.941 462.713C248.779 472.04 222.569 470.575 191.129 453.212L161.222 436.696L87.5351 570.125L0.116044 521.847ZM198.912 368.448L205.047 371.836C215.783 377.764 223.611 378.085 231.841 368.62C244.568 354.634 272.095 304.79 296.234 261.08C318.255 221.205 344.088 174.428 352.375 153.987C356.77 142.404 357.514 133.808 345.245 127.033L335.276 121.527L198.912 368.448Z" fill="#B490E8"/>
<path d="M0.116045 521.847L-1.63472 520.88L-2.60159 522.631L-0.850824 523.598L0.116045 521.847ZM288.088 0.400465L289.055 -1.3503L287.304 -2.31716L286.337 -0.566403L288.088 0.400465ZM451.412 119.617L449.467 120.084L449.47 120.094L451.412 119.617ZM269.941 462.713L270.748 464.543L270.755 464.54L270.762 464.537L269.941 462.713ZM161.222 436.696L162.189 434.945L160.438 433.978L159.471 435.729L161.222 436.696ZM87.5351 570.125L86.5682 571.876L88.319 572.843L89.2858 571.092L87.5351 570.125ZM198.912 368.448L197.162 367.481L196.195 369.232L197.946 370.198L198.912 368.448ZM231.841 368.62L230.362 367.274L230.346 367.29L230.331 367.308L231.841 368.62ZM352.375 153.987L354.228 154.738L354.237 154.717L354.245 154.696L352.375 153.987ZM335.276 121.527L336.243 119.777L334.492 118.81L333.525 120.56L335.276 121.527ZM1.86681 522.814L289.839 1.36733L286.337 -0.566403L-1.63472 520.88L1.86681 522.814ZM287.121 2.15123L388.343 58.0517L390.277 54.5502L289.055 -1.3503L287.121 2.15123ZM388.343 58.0517C401.677 65.4155 415.459 74.5198 426.672 85.0279C437.902 95.5517 446.413 107.35 449.467 120.084L453.357 119.151C450.048 105.354 440.928 92.9056 429.407 82.1092C417.87 71.2972 403.782 62.0085 390.277 54.5502L388.343 58.0517ZM449.47 120.094C454.863 142.055 449.969 167.535 437.62 198.471C425.279 229.387 405.634 265.418 381.902 308.391L385.404 310.325C409.102 267.412 428.882 231.149 441.335 199.954C453.78 168.779 459.05 142.332 453.354 119.14L449.47 120.094ZM381.902 308.391C357.329 352.887 337.941 387.082 320.223 412.174C302.496 437.278 286.603 453.024 269.121 460.889L270.762 464.537C289.229 456.229 305.63 439.774 323.49 414.482C341.359 389.177 360.852 354.781 385.404 310.325L381.902 308.391ZM269.135 460.882C248.695 469.892 223.153 468.613 192.095 451.461L190.162 454.963C221.985 472.537 248.862 474.189 270.748 464.543L269.135 460.882ZM192.095 451.461L162.189 434.945L160.255 438.447L190.162 454.963L192.095 451.461ZM159.471 435.729L85.7843 569.158L89.2858 571.092L162.973 437.663L159.471 435.729ZM88.5019 568.374L1.08291 520.096L-0.850824 523.598L86.5682 571.876L88.5019 568.374ZM197.946 370.198L204.08 373.586L206.014 370.085L199.879 366.697L197.946 370.198ZM204.08 373.586C209.565 376.616 214.632 378.405 219.551 377.994C224.56 377.575 229.018 374.914 233.35 369.932L230.331 367.308C226.434 371.79 222.863 373.703 219.217 374.007C215.481 374.32 211.265 372.985 206.014 370.085L204.08 373.586ZM233.32 369.966C239.854 362.786 250.025 346.627 261.485 327.005C272.99 307.307 285.918 283.896 297.985 262.047L294.483 260.113C282.411 281.974 269.506 305.339 258.031 324.988C246.511 344.712 236.555 360.468 230.362 367.274L233.32 369.966ZM297.985 262.047C319.965 222.245 345.883 175.322 354.228 154.738L350.521 153.235C342.292 173.533 316.545 220.164 294.483 260.113L297.985 262.047ZM354.245 154.696C356.455 148.872 357.93 143.377 357.027 138.353C356.092 133.144 352.698 128.864 346.211 125.282L344.278 128.783C350.061 131.977 352.43 135.382 353.09 139.061C353.784 142.924 352.69 147.518 350.505 153.277L354.245 154.696ZM346.211 125.282L336.243 119.777L334.309 123.278L344.278 128.783L346.211 125.282ZM333.525 120.56L197.162 367.481L200.663 369.415L337.027 122.494L333.525 120.56Z" fill="#AD89DF"/>
</g>
</svg>
