<svg width="29" height="30" viewBox="0 0 29 30" fill="none" xmlns="http://www.w3.org/2000/svg">
<path d="M19.3332 10.1667C21.256 10.1667 23.1001 10.9305 24.4597 12.2901C25.8193 13.6498 26.5832 15.4939 26.5832 17.4167V25.875H21.7498V17.4167C21.7498 16.7757 21.4952 16.161 21.042 15.7078C20.5888 15.2546 19.9741 15 19.3332 15C18.6922 15 18.0775 15.2546 17.6243 15.7078C17.1711 16.161 16.9165 16.7757 16.9165 17.4167V25.875H12.0832V17.4167C12.0832 15.4939 12.847 13.6498 14.2066 12.2901C15.5663 10.9305 17.4104 10.1667 19.3332 10.1667ZM2.4165 11.375H7.24984V25.875H2.4165V11.375Z" stroke="white" stroke-width="2" stroke-linecap="round" stroke-linejoin="round"/>
<path d="M4.83317 7.75001C6.16786 7.75001 7.24984 6.66803 7.24984 5.33334C7.24984 3.99865 6.16786 2.91667 4.83317 2.91667C3.49848 2.91667 2.4165 3.99865 2.4165 5.33334C2.4165 6.66803 3.49848 7.75001 4.83317 7.75001Z" stroke="white" stroke-width="2" stroke-linecap="round" stroke-linejoin="round"/>
</svg>
