<svg width="406" height="633" viewBox="0 0 406 633" fill="none" xmlns="http://www.w3.org/2000/svg">
<g opacity="0.1">
<path d="M53.7141 579.13L230.21 98.023L176.754 78.4124L205.415 0.283828L405.26 73.5976L376.598 151.726L323.964 132.417L147.468 613.525L53.7141 579.13Z" fill="#B490E8"/>
<path d="M53.7141 579.13L51.8364 578.442L51.1476 580.319L53.0253 581.008L53.7141 579.13ZM230.21 98.023L232.088 98.7119L232.777 96.8342L230.899 96.1454L230.21 98.023ZM176.754 78.4124L174.876 77.7236L174.187 79.6012L176.065 80.29L176.754 78.4124ZM205.415 0.283841L206.104 -1.5938L204.227 -2.28262L203.538 -0.404978L205.415 0.283841ZM405.26 73.5976L407.138 74.2864L407.827 72.4088L405.949 71.7199L405.26 73.5976ZM376.598 151.726L375.91 153.604L377.787 154.293L378.476 152.415L376.598 151.726ZM323.964 132.417L324.653 130.54L322.776 129.851L322.087 131.728L323.964 132.417ZM147.468 613.525L146.78 615.402L148.657 616.091L149.346 614.213L147.468 613.525ZM55.5917 579.819L232.088 98.7119L228.332 97.3342L51.8364 578.442L55.5917 579.819ZM230.899 96.1454L177.443 76.5347L176.065 80.29L229.521 99.9007L230.899 96.1454ZM178.631 79.1012L207.293 0.97266L203.538 -0.404978L174.876 77.7236L178.631 79.1012ZM204.727 2.16148L404.571 75.4752L405.949 71.7199L206.104 -1.5938L204.727 2.16148ZM403.382 72.9088L374.721 151.037L378.476 152.415L407.138 74.2864L403.382 72.9088ZM377.287 149.848L324.653 130.54L323.276 134.295L375.91 153.604L377.287 149.848ZM322.087 131.728L145.591 612.836L149.346 614.213L325.842 133.106L322.087 131.728ZM148.157 611.647L54.4029 577.253L53.0253 581.008L146.78 615.402L148.157 611.647Z" fill="#AD89DF"/>
</g>
</svg>
