<svg width="29" height="31" viewBox="0 0 29 31" fill="none" xmlns="http://www.w3.org/2000/svg">
<g clip-path="url(#clip0_127_12)">
<path d="M14.4998 11.75C13.5384 11.75 12.6164 12.1451 11.9366 12.8483C11.2568 13.5516 10.8748 14.5054 10.8748 15.5C10.8748 16.4946 11.2568 17.4484 11.9366 18.1517C12.6164 18.8549 13.5384 19.25 14.4998 19.25C15.4612 19.25 16.3833 18.8549 17.0631 18.1517C17.7429 17.4484 18.1248 16.4946 18.1248 15.5C18.1248 14.5054 17.7429 13.5516 17.0631 12.8483C16.3833 12.1451 15.4612 11.75 14.4998 11.75ZM14.4998 9.25C16.1022 9.25 17.6389 9.90848 18.7719 11.0806C19.905 12.2527 20.5415 13.8424 20.5415 15.5C20.5415 17.1576 19.905 18.7473 18.7719 19.9194C17.6389 21.0915 16.1022 21.75 14.4998 21.75C12.8975 21.75 11.3608 21.0915 10.2277 19.9194C9.0947 18.7473 8.45817 17.1576 8.45817 15.5C8.45817 13.8424 9.0947 12.2527 10.2277 11.0806C11.3608 9.90848 12.8975 9.25 14.4998 9.25ZM22.354 8.9375C22.354 9.3519 22.1949 9.74933 21.9116 10.0424C21.6284 10.3354 21.2442 10.5 20.8436 10.5C20.443 10.5 20.0588 10.3354 19.7756 10.0424C19.4923 9.74933 19.3332 9.3519 19.3332 8.9375C19.3332 8.5231 19.4923 8.12567 19.7756 7.83265C20.0588 7.53962 20.443 7.375 20.8436 7.375C21.2442 7.375 21.6284 7.53962 21.9116 7.83265C22.1949 8.12567 22.354 8.5231 22.354 8.9375ZM14.4998 5.5C11.5104 5.5 11.0223 5.50875 9.63146 5.5725C8.68413 5.61875 8.04854 5.75 7.45888 5.9875C6.93446 6.1975 6.55625 6.44875 6.15388 6.86625C5.77568 7.24425 5.48489 7.70573 5.30321 8.21625C5.07363 8.82875 4.94675 9.485 4.90325 10.4638C4.84042 11.8438 4.83317 12.3263 4.83317 15.5C4.83317 18.5925 4.84163 19.0975 4.90325 20.5362C4.94796 21.515 5.07484 22.1737 5.30321 22.7825C5.50863 23.3263 5.7503 23.7175 6.15146 24.1325C6.55867 24.5525 6.93688 24.8037 7.45646 25.0112C8.05338 25.25 8.68896 25.3825 9.63146 25.4275C10.9655 25.4925 11.4319 25.5 14.4998 25.5C17.4893 25.5 17.9774 25.4912 19.3682 25.4275C20.3131 25.3812 20.9499 25.25 21.5396 25.0138C22.0628 24.8025 22.4434 24.5513 22.8446 24.1362C23.2518 23.715 23.4947 23.3238 23.6953 22.7863C23.9248 22.17 24.0529 21.5112 24.0964 20.5362C24.1593 19.1562 24.1665 18.6737 24.1665 15.5C24.1665 12.4075 24.158 11.9025 24.0964 10.4638C24.0517 9.48625 23.9248 8.82625 23.6953 8.21625C23.5131 7.70625 23.2229 7.24495 22.8458 6.86625C22.4806 6.47481 22.0344 6.17396 21.5408 5.98625C20.9487 5.74875 20.3131 5.6175 19.3682 5.5725C18.0342 5.5075 17.5678 5.5 14.4998 5.5ZM14.4998 3C17.7829 3 18.1925 3.0125 19.4806 3.075C20.7675 3.1375 21.6435 3.34625 22.4144 3.65625C23.2119 3.97375 23.8838 4.40375 24.5556 5.0975C25.17 5.72237 25.6454 6.47824 25.9488 7.3125C26.2473 8.10875 26.4503 9.01625 26.5107 10.3475C26.5675 11.68 26.5832 12.1038 26.5832 15.5C26.5832 18.8962 26.5711 19.32 26.5107 20.6525C26.4503 21.9837 26.2473 22.89 25.9488 23.6875C25.6463 24.5222 25.1708 25.2783 24.5556 25.9025C23.9514 26.5379 23.2208 27.0297 22.4144 27.3438C21.6447 27.6525 20.7675 27.8625 19.4806 27.925C18.1925 27.9838 17.7829 28 14.4998 28C11.2168 28 10.8072 27.9875 9.51909 27.925C8.23221 27.8625 7.35617 27.6525 6.58525 27.3438C5.77848 27.0306 5.04768 26.5387 4.44409 25.9025C3.82954 25.2777 3.35409 24.5218 3.05088 23.6875C2.75121 22.8912 2.54942 21.9837 2.489 20.6525C2.43221 19.32 2.4165 18.8962 2.4165 15.5C2.4165 12.1038 2.42859 11.68 2.489 10.3475C2.54942 9.015 2.75121 8.11 3.05088 7.3125C3.35325 6.47772 3.82881 5.72165 4.44409 5.0975C5.04786 4.46154 5.7786 3.96966 6.58525 3.65625C7.35617 3.34625 8.231 3.1375 9.51909 3.075C10.8072 3.01625 11.2168 3 14.4998 3Z" fill="white"/>
</g>
<defs>
<clipPath id="clip0_127_12">
<rect width="29" height="30" fill="white" transform="translate(0 0.5)"/>
</clipPath>
</defs>
</svg>
