<svg width="29" height="31" viewBox="0 0 29 31" fill="none" xmlns="http://www.w3.org/2000/svg">
<g clip-path="url(#clip0_127_22)">
<mask id="mask0_127_22" style="mask-type:alpha" maskUnits="userSpaceOnUse" x="1" y="4" width="25" height="22">
<path d="M18.4874 7.43749C17.5691 7.43733 16.6873 7.81014 16.032 8.4757C15.3766 9.14126 15 10.0464 14.9833 10.9962L14.9494 12.965C14.9474 13.0707 14.9239 13.1748 14.8803 13.2704C14.8367 13.366 14.774 13.451 14.6964 13.5198C14.6189 13.5887 14.5281 13.6397 14.4301 13.6697C14.3321 13.6997 14.229 13.7079 14.1278 13.6937L12.2415 13.4287C9.75963 13.0787 7.38163 11.8962 5.1003 9.92999C4.37771 14.0675 5.78905 16.9337 9.18809 19.145L11.299 20.5175C11.3993 20.5827 11.4827 20.6723 11.5417 20.7786C11.6008 20.8848 11.6338 21.0044 11.6379 21.1268C11.6419 21.2493 11.6169 21.371 11.565 21.4811C11.5131 21.5913 11.4359 21.6866 11.3401 21.7587L9.41646 23.2125C10.5608 23.2862 11.647 23.2337 12.5485 23.0487C18.2494 21.8712 22.0399 17.4337 22.0399 10.1137C22.0399 9.51624 20.8171 7.43749 18.4874 7.43749ZM12.5666 10.95C12.5877 9.74505 12.9519 8.57333 13.6137 7.58152C14.2755 6.58971 15.2053 5.82189 16.2869 5.3742C17.3685 4.92651 18.5538 4.81884 19.6942 5.06467C20.8347 5.31051 21.8797 5.89892 22.6985 6.75624C23.5576 6.74999 24.2886 6.97499 25.9235 5.94999C25.5187 7.99999 25.3193 8.88999 24.4566 10.1137C24.4566 19.6662 18.781 24.3112 13.0221 25.5C9.0733 26.315 3.3313 24.9762 1.68555 23.1987C2.52413 23.1312 5.93163 22.7525 7.90121 21.2612C6.23492 20.125 -0.39762 16.0875 3.96084 5.23249C6.00655 7.70374 8.08126 9.38624 10.1838 10.2787C11.583 10.8725 11.9262 10.86 12.5678 10.9512L12.5666 10.95Z" fill="#09121F"/>
</mask>
<g mask="url(#mask0_127_22)">
<rect y="0.5" width="29" height="28.75" fill="white"/>
</g>
</g>
<defs>
<clipPath id="clip0_127_22">
<rect width="29" height="30" fill="white" transform="translate(0 0.5)"/>
</clipPath>
</defs>
</svg>
